<svg xmlns="http://www.w3.org/2000/svg" viewBox="0 0 32 32" fill="none">
  <rect width="32" height="32" rx="8" fill="#6366f1" />
  <path
    d="M16 6c-3.3 0-6 2.7-6 6 0 1 .2 1.9.6 2.7L8 17.3l1.4 1.4 2.2-2.2c1.1.9 2.6 1.5 4.4 1.5s3.3-.6 4.4-1.5l2.2 2.2 1.4-1.4-2.6-2.6c.4-.8.6-1.7.6-2.7 0-3.3-2.7-6-6-6Zm0 3a3 3 0 0 1 3 3 3 3 0 0 1-3 3 3 3 0 0 1-3-3 3 3 0 0 1 3-3Z"
    fill="#fff"
  />
  <path d="M11 21l-2 4 2-1 1 2 1.5-4.5A6 6 0 0 1 11 21Zm10 0a6 6 0 0 1-2.5 1.5L20 27l1-2 2 1-2-4Z" fill="#fff" />
</svg>
